<?xml version="1.0" encoding="utf-8"?>
<svg viewBox="395.75 0.75 75 75" xmlns="http://www.w3.org/2000/svg">
  <rect id="rect2254" style="color:#000000;fill-rule:evenodd;stroke:#000000;stroke-width:3;fill:#ffffff" rx="50" ry="50" height="150" width="150" y="290.36" x="25.5" transform="matrix(0.5, 0, 0, 0.5, 383.000015, -144.43)"/>
  <path id="path2256" style="color:#000000;fill-rule:evenodd;stroke:#000000;stroke-width:3;fill:#000000" d="m337.5 227.36c0 6.9036-5.5964 12.5-12.5 12.5s-12.5-5.5964-12.5-12.5 5.5964-12.5 12.5-12.5 12.5 5.5964 12.5 12.5z" transform="matrix(0.5, 0, 0, 0.5, 252.500015, -93.68)"/>
  <path id="path2258" style="color:#000000;fill-rule:evenodd;stroke:#000000;stroke-width:3;fill:#000000" d="m337.5 227.36c0 6.9036-5.5964 12.5-12.5 12.5s-12.5-5.5964-12.5-12.5 5.5964-12.5 12.5-12.5 12.5 5.5964 12.5 12.5z" transform="matrix(0.5, 0, 0, 0.5, 252.500015, -57.68)"/>
  <path id="path2260" style="color:#000000;fill-rule:evenodd;stroke:#000000;stroke-width:3;fill:#000000" d="m337.5 227.36c0 6.9036-5.5964 12.5-12.5 12.5s-12.5-5.5964-12.5-12.5 5.5964-12.5 12.5-12.5 12.5 5.5964 12.5 12.5z" transform="matrix(0.5, 0, 0, 0.5, 252.500015, -75.68)"/>
  <path id="path2262" style="color:#000000;fill-rule:evenodd;stroke:#000000;stroke-width:3;fill:#000000" d="m337.5 227.36c0 6.9036-5.5964 12.5-12.5 12.5s-12.5-5.5964-12.5-12.5 5.5964-12.5 12.5-12.5 12.5 5.5964 12.5 12.5z" transform="matrix(0.5, 0, 0, 0.5, 288.500015, -93.68)"/>
  <path id="path2264" style="color:#000000;fill-rule:evenodd;stroke:#000000;stroke-width:3;fill:#000000" d="m337.5 227.36c0 6.9036-5.5964 12.5-12.5 12.5s-12.5-5.5964-12.5-12.5 5.5964-12.5 12.5-12.5 12.5 5.5964 12.5 12.5z" transform="matrix(0.5, 0, 0, 0.5, 288.500015, -57.68)"/>
  <path id="path2266" style="color:#000000;fill-rule:evenodd;stroke:#000000;stroke-width:3;fill:#000000" d="m337.5 227.36c0 6.9036-5.5964 12.5-12.5 12.5s-12.5-5.5964-12.5-12.5 5.5964-12.5 12.5-12.5 12.5 5.5964 12.5 12.5z" transform="matrix(0.5, 0, 0, 0.5, 288.500015, -75.68)"/>
</svg>