<?xml version="1.0" encoding="utf-8"?>
<svg viewBox="316.75 0.753 75 75" xmlns="http://www.w3.org/2000/svg">
  <rect id="rect2270" style="color:#000000;fill-rule:evenodd;stroke:#000000;stroke-width:3;fill:#ffffff" rx="50" ry="50" height="150" width="150" y="277.86" x="213" transform="matrix(0.5, 0, 0, 0.5, 210.25, -138.177002)"/>
  <path id="path2272" style="color:#000000;fill-rule:evenodd;stroke:#000000;stroke-width:3;fill:#000000" d="m337.5 227.36c0 6.9036-5.5964 12.5-12.5 12.5s-12.5-5.5964-12.5-12.5 5.5964-12.5 12.5-12.5 12.5 5.5964 12.5 12.5z" transform="matrix(0.5, 0, 0, 0.5, 173.5, -93.677002)"/>
  <path id="path2274" style="color:#000000;fill-rule:evenodd;stroke:#000000;stroke-width:3;fill:#000000" d="m337.5 227.36c0 6.9036-5.5964 12.5-12.5 12.5s-12.5-5.5964-12.5-12.5 5.5964-12.5 12.5-12.5 12.5 5.5964 12.5 12.5z" transform="matrix(0.5, 0, 0, 0.5, 173.5, -57.677002)"/>
  <path id="path2276" style="color:#000000;fill-rule:evenodd;stroke:#000000;stroke-width:3;fill:#000000" d="m337.5 227.36c0 6.9036-5.5964 12.5-12.5 12.5s-12.5-5.5964-12.5-12.5 5.5964-12.5 12.5-12.5 12.5 5.5964 12.5 12.5z" transform="matrix(0.5, 0, 0, 0.5, 209.5, -93.677002)"/>
  <path id="path2278" style="color:#000000;fill-rule:evenodd;stroke:#000000;stroke-width:3;fill:#000000" d="m337.5 227.36c0 6.9036-5.5964 12.5-12.5 12.5s-12.5-5.5964-12.5-12.5 5.5964-12.5 12.5-12.5 12.5 5.5964 12.5 12.5z" transform="matrix(0.5, 0, 0, 0.5, 209.5, -57.677002)"/>
  <path id="path2280" style="color:#000000;fill-rule:evenodd;stroke:#000000;stroke-width:3;fill:#000000" d="m337.5 227.36c0 6.9036-5.5964 12.5-12.5 12.5s-12.5-5.5964-12.5-12.5 5.5964-12.5 12.5-12.5 12.5 5.5964 12.5 12.5z" transform="matrix(0.5, 0, 0, 0.5, 191.5, -75.677002)"/>
</svg>