<?xml version="1.0" encoding="utf-8"?>
<svg viewBox="79.75 0.754 75 75" xmlns="http://www.w3.org/2000/svg">
  <rect id="rect2306" style="color:#000000;fill-rule:evenodd;stroke:#000000;stroke-width:3;fill:#ffffff" rx="50" ry="50" height="150" width="150" y="40.362" x="613" transform="matrix(0.5, 0, 0, 0.5, -226.75, -19.427)"/>
  <path id="path2308" style="color:#000000;fill-rule:evenodd;stroke:#000000;stroke-width:3;fill:#000000" d="m337.5 227.36c0 6.9036-5.5964 12.5-12.5 12.5s-12.5-5.5964-12.5-12.5 5.5964-12.5 12.5-12.5 12.5 5.5964 12.5 12.5z" transform="matrix(0.5, 0, 0, 0.5, -63.5, -93.677)"/>
  <path id="path2310" style="color:#000000;fill-rule:evenodd;stroke:#000000;stroke-width:3;fill:#000000" d="m337.5 227.36c0 6.9036-5.5964 12.5-12.5 12.5s-12.5-5.5964-12.5-12.5 5.5964-12.5 12.5-12.5 12.5 5.5964 12.5 12.5z" transform="matrix(0.5, 0, 0, 0.5, -27.5, -57.677)"/>
</svg>