<?xml version="1.0" encoding="utf-8"?>
<svg viewBox="158.753 0.754 75 75" xmlns="http://www.w3.org/2000/svg">
  <rect id="rect2296" style="color:#000000;fill-rule:evenodd;stroke:#000000;stroke-width:3;fill:#ffffff" rx="50" ry="50" height="150" width="150" y="2.8622" x="413" transform="matrix(0.5, 0, 0, 0.5, -47.747099, -0.677002)"/>
  <path id="path2298" style="color:#000000;fill-rule:evenodd;stroke:#000000;stroke-width:3;fill:#000000" d="m337.5 227.36c0 6.9036-5.5964 12.5-12.5 12.5s-12.5-5.5964-12.5-12.5 5.5964-12.5 12.5-12.5 12.5 5.5964 12.5 12.5z" transform="matrix(0.5, 0, 0, 0.5, 15.502901, -93.677002)"/>
  <path id="path2300" style="color:#000000;fill-rule:evenodd;stroke:#000000;stroke-width:3;fill:#000000" d="m337.5 227.36c0 6.9036-5.5964 12.5-12.5 12.5s-12.5-5.5964-12.5-12.5 5.5964-12.5 12.5-12.5 12.5 5.5964 12.5 12.5z" transform="matrix(0.5, 0, 0, 0.5, 51.502901, -57.677002)"/>
  <path id="path2302" style="color:#000000;fill-rule:evenodd;stroke:#000000;stroke-width:3;fill:#000000" d="m337.5 227.36c0 6.9036-5.5964 12.5-12.5 12.5s-12.5-5.5964-12.5-12.5 5.5964-12.5 12.5-12.5 12.5 5.5964 12.5 12.5z" transform="matrix(0.5, 0, 0, 0.5, 33.502901, -75.677002)"/>
</svg>