<?xml version="1.0" encoding="utf-8"?>
<svg viewBox="237.753 0.753 75 75" xmlns="http://www.w3.org/2000/svg">
  <rect id="rect2284" style="color:#000000;fill-rule:evenodd;stroke:#000000;stroke-width:3;fill:#ffffff" rx="50" ry="50" height="150" width="150" y="265.36" x="425.5" transform="matrix(0.5, 0, 0, 0.5, 25.002998, -131.927002)"/>
  <path id="path2286" style="color:#000000;fill-rule:evenodd;stroke:#000000;stroke-width:3;fill:#000000" d="m337.5 227.36c0 6.9036-5.5964 12.5-12.5 12.5s-12.5-5.5964-12.5-12.5 5.5964-12.5 12.5-12.5 12.5 5.5964 12.5 12.5z" transform="matrix(0.5, 0, 0, 0.5, 94.502998, -93.677002)"/>
  <path id="path2288" style="color:#000000;fill-rule:evenodd;stroke:#000000;stroke-width:3;fill:#000000" d="m337.5 227.36c0 6.9036-5.5964 12.5-12.5 12.5s-12.5-5.5964-12.5-12.5 5.5964-12.5 12.5-12.5 12.5 5.5964 12.5 12.5z" transform="matrix(0.5, 0, 0, 0.5, 94.502998, -57.677002)"/>
  <path id="path2290" style="color:#000000;fill-rule:evenodd;stroke:#000000;stroke-width:3;fill:#000000" d="m337.5 227.36c0 6.9036-5.5964 12.5-12.5 12.5s-12.5-5.5964-12.5-12.5 5.5964-12.5 12.5-12.5 12.5 5.5964 12.5 12.5z" transform="matrix(0.5, 0, 0, 0.5, 130.502998, -93.677002)"/>
  <path id="path2292" style="color:#000000;fill-rule:evenodd;stroke:#000000;stroke-width:3;fill:#000000" d="m337.5 227.36c0 6.9036-5.5964 12.5-12.5 12.5s-12.5-5.5964-12.5-12.5 5.5964-12.5 12.5-12.5 12.5 5.5964 12.5 12.5z" transform="matrix(0.5, 0, 0, 0.5, 130.502998, -57.677002)"/>
</svg>